<?xml version="1.0" standalone="no"?>
<!DOCTYPE svg PUBLIC "-//W3C//DTD SVG 20010904//EN"
 "http://www.w3.org/TR/2001/REC-SVG-20010904/DTD/svg10.dtd">
<svg version="1.0" xmlns="http://www.w3.org/2000/svg"
 width="1024.000000pt" height="1024.000000pt" viewBox="0 0 1024.000000 1024.000000"
 preserveAspectRatio="xMidYMid meet">

<g transform="translate(0.000000,1024.000000) scale(0.100000,-0.100000)"
fill="#000000" stroke="none">
<path d="M3979 5873 c-13 -16 -12 -17 4 -4 9 7 17 15 17 17 0 8 -8 3 -21 -13z"/>
<path d="M4339 5873 c-13 -16 -12 -17 4 -4 9 7 17 15 17 17 0 8 -8 3 -21 -13z"/>
<path d="M3914 5839 c-8 -14 14 -19 25 -6 8 10 7 14 -5 14 -8 0 -17 -4 -20 -8z"/>
<path d="M4985 5759 c-143 -80 -213 -114 -197 -98 6 7 12 18 12 24 0 5 -5 3
-10 -5 -7 -12 -12 -12 -22 -2 -14 14 -62 17 -53 2 3 -5 -1 -10 -9 -10 -9 0
-16 4 -16 9 0 5 -32 8 -71 7 -55 -2 -72 1 -79 13 -6 10 -10 11 -10 4 0 -17
-37 -17 -43 0 -3 8 -32 21 -64 30 -67 19 -76 20 -69 9 3 -5 -5 -7 -17 -6 -12
1 -25 3 -29 3 -5 1 -8 11 -8 24 0 18 -2 19 -10 7 -5 -8 -10 -11 -10 -7 0 4
-12 -3 -27 -17 -15 -14 -30 -23 -34 -20 -4 2 -10 0 -14 -6 -3 -5 -14 -10 -22
-10 -13 0 -10 8 13 32 47 50 -512 -433 -816 -706 -247 -222 -624 -576 -614
-576 10 0 173 62 459 175 232 91 586 227 650 250 11 4 4 -3 -15 -16 -59 -38
-281 -178 -593 -373 -163 -102 -349 -220 -412 -262 l-115 -76 0 -311 1 -312
67 -30 c37 -16 182 -85 322 -153 l255 -124 33 19 c18 10 133 87 255 171 122
84 458 315 747 512 289 197 565 386 613 419 l88 61 212 -147 c117 -80 444
-304 727 -498 527 -360 608 -415 718 -493 l63 -44 107 50 c59 28 206 98 327
156 l220 105 3 309 2 310 -137 90 c-243 158 -737 468 -920 578 -45 27 -81 50
-79 51 3 4 117 -38 371 -137 116 -45 309 -119 430 -165 121 -46 237 -90 257
-99 21 -9 40 -16 42 -16 9 0 -265 263 -443 426 -367 335 -602 540 -587 514 7
-12 6 -12 -4 -3 -7 6 -18 9 -25 7 -6 -3 -18 2 -25 11 -13 16 -70 21 -70 7 0
-11 -32 -12 -45 -1 -6 4 -57 8 -115 8 -58 0 -127 0 -155 1 -28 1 -51 -3 -53
-9 -2 -6 -11 -11 -20 -11 -11 0 -5 -8 16 -21 46 -30 40 -34 -10 -6 -574 321
-789 437 -814 437 -11 0 -69 -27 -129 -61z m-815 -58 c0 -5 -7 -12 -16 -15
-14 -5 -15 -4 -4 9 14 17 20 19 20 6z m992 -174 c24 -13 91 -50 151 -81 59
-31 107 -59 107 -62 0 -2 -13 2 -30 11 -20 11 -36 12 -52 6 -46 -19 -64 -24
-93 -27 -16 -2 -41 -6 -54 -9 -15 -4 -30 0 -42 11 -19 17 -19 13 -21 -132 l-2
-149 -6 120 c-9 147 -12 335 -5 335 2 0 24 -11 47 -23z m-2262 -1517 c-8 -5
-19 -10 -25 -10 -5 0 -3 5 5 10 8 5 20 10 25 10 6 0 3 -5 -5 -10z"/>
<path d="M3722 5747 c-301 -297 -355 -347 -367 -337 -9 7 -16 5 -26 -7 -13
-16 -12 -17 3 -5 31 24 33 -8 2 -34 -37 -29 -53 -31 -28 -2 10 12 13 18 6 14
-13 -8 -162 -192 -162 -201 0 -7 46 30 325 265 114 96 252 212 307 258 55 46
97 86 94 90 -4 3 -19 7 -34 8 -15 1 -34 4 -42 7 -9 3 -39 -18 -78 -56z"/>
<path d="M6591 5628 c-6 -13 -10 -17 -10 -9 -1 8 -4 11 -8 8 -3 -4 -12 -2 -20
4 -7 6 -13 9 -13 7 0 -3 24 -24 53 -48 34 -29 42 -33 24 -14 -27 30 -28 48 -1
37 18 -7 18 5 -1 23 -13 14 -16 13 -24 -8z"/>
<path d="M6696 5504 c87 -84 405 -344 379 -310 -15 20 -31 36 -35 36 -13 0
-71 52 -78 70 -4 9 -65 70 -135 134 -97 90 -131 115 -141 107 -7 -6 -17 -7
-22 -3 -6 4 9 -11 32 -34z"/>
</g>
</svg>
